<?xml version="1.0" encoding="UTF-8"?>
<svg version="1.1" viewBox="0 0 2048 1637" width="1280" height="1280" xmlns="http://www.w3.org/2000/svg">
<path transform="translate(971,903)" d="m0 0 10 2 5 3-1 4-3 5-1 6 2 12 6 8 11 8h2l10-17 10-13h3l8 10 9 14 4 6 9-5 7-6 3-6 1-7v-8l-3-7-2-1v-3l11-5 8 1 5 4 3 10 6-2 14-5 11-2h14l11 3 10 5 13 13 7 11 3 9 3 14v10l-4 12-7 9-8 7-6 2 5-15v-9l-4-9h-1l-3 15-6 12-9 10-8 5-10 3h-8l-9-3-6-5-5-9-1-3v-9l7 1h8l10-4 7-8 2-6v-11l-4-8-8-6-13-2-12 3-16 8-11 8-7 7-9 13-5 12-2 8v4l8-14 9-10 5-2h7l6 5 3 6v3l-12 4-10 9-6 12-2 16v18l3 15 5 5 6 3 4 1-1 5-7 11-10 9-13 6-6 2-8-1-12-5-9-7-8-9-5-11 11-4 4-4 3-15v-25l-2-11-4-9-6-7-9-5-9-4 4-8 6-5h7l8 5 8 11 5 9h1l-2-10-6-14-8-11-6-7-11-8-15-8-8-3h-16l-8 4-6 7-2 12 3 9 5 7 8 4 3 1h9l6-2 1 1-1 11-4 8-8 7-9 3h-8l-11-4-8-6-8-9-6-12-2-12-1-2-4 7v12l5 12 1 3-6-2-9-7-6-8-5-12v-15l5-19 7-11 11-12 10-6 13-4h15l14 3 17 7 1-8 4-6z" fill="#AD8C30"/>
<path transform="translate(1018,674)" d="m0 0h11l9 4 6 9 1 3v11l-3 8 13 2 17 6 15 8 12 9 12 11 12 15 9 17 7 21 4 26-1 1h-236l-1-3 4-26 8-21 7-13 9-12 9-10 13-11 13-8 13-6 15-5 9-1-2-8v-11l4-8 7-6z" fill="#D2AF48"/>
<path transform="translate(1022,476)" d="m0 0 4 2 12 26 6 21 2 13v16l-1 7v12l5 10 5 5 7 3 10 1 9-2 10-6 6-8 5-11 1-13-4-10-6-8 2-4 9-4h10l10 5 6 7 2 3 13 4 6 7 2 8-8-1-7 2-5 8-8 14-9 11-11 9-10 5-7 2h-26l-17-5-7-3 2 8 5 9 8 7 7 4 15 2 12-3 10-5v7l-3 10-6 4h-3l3 3h12l13-5 11-8 8-8 10-15 7-16h4l6 8 3 10v14l-3 10-6 9-8 8-14 7-16 4-7 1h-17l-16-3-16-6-13-7-11-8-10-8-4 1-10 8-16 10-15 7-16 4-6 1h-25l-14-3-16-8-6-5-8-11-4-11v-14l4-11 6-9 3 1 9 19 9 13 7 8 14 9 11 4h13l2-2-8-5-3-4-2-8v-4l4 1 9 4 5 1h14l10-4 9-6 6-9 3-10-21 7-5 1h-25l-11-4-11-7-7-6-9-13-10-17-3-3-7-1-6 1-1-2 5-10 5-4 11-3 6-8 9-6 2-1h13l9 5-1 4-7 11-1 3v13l4 11 7 11 7 5 12 3 10-1 10-5 5-7 2-6v-12l-1-9v-12l3-18 6-20z" fill="#AD8C30"/>
<path transform="translate(1191,650)" d="m0 0h14l13 4 9 6 5 7 2 6v10l-5 12-4 5-8 4-9 1-8-1-1-4 3-10-1-10-3-5-6-4-6 1-6 4-5 10-1 6v12l4 21 7 19 11 19 2 1v-8l3-6 3-2h9l6 4 5 9v3h-7l-5 5-1 3v9l4 10 8 11 10 11 7 8 8 8 13 9 14 7 12 4 15 2 13-1 10-4 6-5 3-6v-12l-6-12-7-7 4-5 7-3h11l8 4 6 7 4 10 1 5v16l-2 10 5-3 5-6 2-8-1-18 5 2 6 5 3 5 2 8v15l-4 13-7 10-8 7-12 6-12 3-13 1-19-3-24-8-16-8-12-8-16-13-10-9-22-22-9-11-12-15-12-20-10-13-7-5-3-1h-9l-6 1 2-10 4-4 6-2h6l-3-14-1-8v-29l4-13 6-10 7-7 11-5z" fill="#AD8C30"/>
<path transform="translate(840,650)" d="m0 0h19l12 5 9 8 8 16 2 8v27l-4 23 10 1 5 4 3 8v3l-7-1h-9l-8 5-8 9-8 13-9 14-9 11-12 14-7 8-16 16-11 9-14 11-14 9-18 8-15 5-16 3h-20l-12-3-13-7-9-9-7-14-1-4v-18l4-11 5-5 4-3h2v23l6 9 5 3-2-20 2-12 4-10 4-5 9-5h11l7 3 4 3-1 4-5 5-5 8-2 12 3 9 8 7 9 3 6 1h9l13-2 17-6 15-9 11-9 9-9 9-11 10-12 4-9 1-4v-7l-3-7-2-1h-9l1-4 4-8 5-4 2-1h8l5 4 3 12 10-16 5-12 5-17 2-10v-22l-5-10-6-5h-9l-5 5-2 5v11l3 10-10 2-9-1-7-4-6-8-4-12 1-8 5-10 8-7z" fill="#D2AF49"/>
<path transform="translate(971,903)" d="m0 0 10 2 5 3-1 4-3 5-1 6 2 12 6 8 11 8h2l10-17 10-13h3l3 3v2h-2l-1 5-1 83-1 90v4h5l-2 2-8-1-12-5-9-7-8-9-5-11 11-4 4-4 3-15v-25l-2-11-4-9-6-7-9-5-9-4 4-8 6-5h7l8 5 8 11 5 9h1l-2-10-6-14-8-11-6-7-11-8-15-8-8-3h-16l-8 4-6 7-2 12 3 9 5 7 8 4 3 1h9l6-2 1 1-1 11-4 8-8 7-9 3h-8l-11-4-8-6-8-9-6-12-2-12-1-2-4 7v12l5 12 1 3-6-2-9-7-6-8-5-12v-15l5-19 7-11 11-12 10-6 13-4h15l14 3 17 7 1-8 4-6z" fill="#D2AF48"/>
<path transform="translate(1022,476)" d="m0 0 4 2 1 4h-2l-1 15v133l3 5h-5l-11 9-16 10-15 7-16 4-6 1h-25l-14-3-16-8-6-5-8-11-4-11v-14l4-11 6-9 3 1 9 19 9 13 7 8 14 9 11 4h13l2-2-8-5-3-4-2-8v-4l4 1 9 4 5 1h14l10-4 9-6 6-9 3-10-21 7-5 1h-25l-11-4-11-7-7-6-9-13-10-17-3-3-7-1-6 1-1-2 5-10 5-4 11-3 6-8 9-6 2-1h13l9 5-1 4-7 11-1 3v13l4 11 7 11 7 5 12 3 10-1 10-5 5-7 2-6v-12l-1-9v-12l3-18 6-20z" fill="#D2AF49"/>
<path transform="translate(892,840)" d="m0 0h264v20h-264l-1-3z" fill="#D2AF48"/>
<path transform="translate(1100,318)" d="m0 0 11 2 18 1 1 2-4 13-12 49-1 5v12l4 6 7 2 8-1 9-6 6-8 4-13 9-36 1-7-2-4-4-2v-2l36 9v2h-8l-4 16-16 66 1 4 7 4-4 1-13-4-6-5-3-7v-8l1-2-8 6-5 4-13 4h-8l-11-4-7-8-3-7v-12l7-31 7-27v-9l-6-3z" fill="#FDFDFD"/>
<path transform="translate(642,503)" d="m0 0h8l8 3 6 7 2 6v18l9-7 3-1h9l8 4 14 9 4 2 5-1 2-4-1-4 4 1 1 4-7 10-8 7-9 2-12-6-8-5-6-1-8 3-3 3-1 5v12l10 8 10 7 5-1 5-4-2 5-9 13-8 11-3 3 1-5 1-6-30-22-17-12-18-13-3-2h-5l-4 4-1-2 16-22 10-14 5-6 9-6zm-11 16-6 3-6 7-2 5 1 5 7 6 14 10 11 8 4 3h2v-32l-4-8-7-6-3-1z" fill="#FDFDFD"/>
<path transform="translate(1233,359)" d="m0 0 5 2 29 15 11 8 6 5 6 10 1 3v10l-5 8-6 5-13 2-9-1 5 5 6 9 1 8-4 10-8 16 1 5 1 1 9 1v2l-7 1-9-3-6-5-5-9 1-8 7-15v-8l-5-8-2-1h-14l-4 2-10 18-1 6 6 7-5-2-25-14-4-2v-2l10 1 7-10 13-24 10-18 11-19-1-7-3-2zm21 20-4 4-13 23-7 12v2h19l11-2 8-5 5-6 1-3v-12l-6-8-8-4z" fill="#FEFEFE"/>
<path transform="translate(1228,853)" d="m0 0 5 1-5 5-9 7-8 8-6 12-2 8v9l3 9 5 6 4 2h9l5-3 3-5 1-7-3-6-4-4 10-4h8l10 5 6 7 3 7v14l-5 10-7 8-8 6-13 4h-8l-9-2-9-5-8-7-7-11-3-8-1-4v-17l4-14 7-12 8-9 10-6 9-3z" fill="#AD8C31"/>
<path transform="translate(814,854)" d="m0 0h9l11 4 10 6 9 10 6 12 3 10 1 7v9l-3 12-6 11-10 10-10 5-10 2h-7l-10-3-9-6-7-7-6-12-1-11 3-9 7-8 10-5 10 1 7 3v2l-5 4-1 2 1 9 4 6 3 2 8 1 7-4 4-5 2-6v-16l-4-11-8-11-12-9-6-4z" fill="#D2AF48"/>
<path transform="translate(823,356)" d="m0 0h2l-1 12 1 9h-27l-7 4-3 4v7l5 5 6 2 35 4 11 3 8 5 5 9 1 4v8l-4 10-8 9-9 5-15 4-8 3-10 9h-1l-1-17-1-8 17 1 12 1 7-4 4-6v-7l-2-4-8-4-7-1-24-1-14-3-8-6-5-8-1-3v-13l4-8 5-6 10-6 13-4 9-3z" fill="#FEFEFE"/>
<path transform="translate(728,409)" d="m0 0h1l2 11 2 5-1 4-22 5-8 4-4 3 1 5 7 7 9 11 8 9 2-15 4-6 11-10h2v12l1 7-9 6-3 4-2 9 9 11 12 14 1 2 4-2 14-12 5-5 3-4 1-6-2-9-1-6 3 1 8 18-1 4-8 8-10 8-14 12-11 9-9 8-2-1 4-6-2-5-11-14-11-12-9-11-12-14-9-10-6-1-5 2 6-7 12-9 13-12 10-8 15-13z" fill="#FEFEFE"/>
<path transform="translate(1007,307)" d="m0 0 4 2 10 23 19 46 10 24 2 3 6 2-3 2h-33l1-2 6-1-5-14-4-6-7-7-4-2h-18l-4-7-8 25-4 14 4 1v2h-21l3-2 8-2 1-5 13-41 12-35 3-9 7-10zm-8 25-4 10-6 18v2l14 2 8 7 7 6-3-9-11-27-4-9z" fill="#FEFEFE"/>
<path transform="translate(1373,457)" d="m0 0h12l-1 8-15 33-16 35-9 20 1 6 1 4-3-1-7-8-17-17 9 1 5-9 2-12v-8l-4-8-9-8 2-4v-4l-19 9-14 7-1 6-4-2-13-13 5 1 5 3 6-1 16-7 16-8 15-7 26-12 6-3zm-14 11-26 12v3l6 7 1 4v10l-1 9 3-3 6-12 13-28v-2z" fill="#FDFDFD"/>
<path transform="translate(1437,529)" d="m0 0 2 1 7 14 5 7-1 6-16 35-12 28v2l22-12 17-10 8-5-1-10 4 4 9 16-1 2-6-6-6 2-41 23-11 7-4 9-4 1h-8l-7 1 1-4 9-19 13-30 16-36 3-6-24 13-14 8-23 13-7 4 1 10-4-4-8-13 1-3 3 3 4 1 17-9 23-13 25-14 8-5z" fill="#FEFEFE"/>
<path transform="translate(550,645)" d="m0 0 8 5 6 3-6 9-7 9-3 8 76 20h9l2-6h2l-4 16-4 15-2 6h-2v-9l-9-3-38-10-34-9-3-1 3 30-1 1h-16l1-5 5-16 13-48 3-14z" fill="#FEFEFE"/>
<path transform="translate(1496,645)" d="m0 0h2l3 13 16 60 4 11h-17l1-13 1-8v-9l-11 2-49 13-23 6v8l-2 1-5-15-4-16-1-5 5 5 4 2 31-8 44-12 5-1-2-5-6-10-8-10 4-3z" fill="#FEFEFE"/>
<path transform="translate(1061,728)" d="m0 0 7 1 17 10 14 12 9 10 10 14 7 13 5 19v6l-4 1h-33l-6-1 3-9 2-8v-11l-5-6v-2l-4-2-6-6v-3h-2l-1-10 1-7-3-6-4-4v-2l-4-2-3-4z" fill="#AC8B30"/>
<path transform="translate(941,318)" d="m0 0h3v16l-30-3 3 15 16 65 2 5h8l1 2-34 8-3-1 7-4-2-11-14-57-4-16-5 2-11 7-8 6-4-2-4-7-2-4 13-3 55-14z" fill="#FEFEFE"/>
<path transform="translate(988,726)" d="m0 0h2l-2 4-9 9-6 9v8l1 8-3 5-13 12-2 4v12l5 14v2l-2 1h-34l-6-2 1-8 7-21 2-7h2l2-5 7-10 5-5 4-5 6-5h2l1-3 5-2v-2h2v-2l4-1v-2l11-5z" fill="#AC8B30"/>
<path transform="translate(832,840)" d="m0 0h18l12 5 9 7 7 8 3 9v11l-3 7-5 6-2-1-2-11-6-14-8-11-7-7-16-8z" fill="#D2AF48"/>
<path transform="translate(1198,840)" d="m0 0h17l-4 3-12 7-3 3h-2l-2 4-7 9-6 13-2 6-1 7-4-1-4-6-2-11 2-10 6-10 7-6 8-5z" fill="#AE8D31"/>
<path transform="translate(1263,883)" d="m0 0 12 2 6 4 4 5 2 5v9l-4 11-4 5h-2l-1-15-5-13-7-9z" fill="#B08F32"/>
<path transform="translate(781,883)" d="m0 0h6l-5 5-7 10-4 12v13h-3l-7-11-1-4v-8l3-7 5-5 8-4z" fill="#D2B04A"/>
<path transform="translate(1288,809)" d="m0 0 9 1 5 3 3 8-3 9-7 6-6 2h-10l-3-3 10-6 3-4 1-8z" fill="#AF8E32"/>
<path transform="translate(754,809)" d="m0 0h5l-1 5v10l3 5 9 5-1 4h-10l-9-3-6-7-1-10 4-6z" fill="#D2B04A"/>
<path transform="translate(626,604)" d="m0 0h2l-1 7-12 25-2 3h-3l1-6 9-20z" fill="#FEFEFE"/>
<path transform="translate(669,459)" d="m0 0" fill="#FEFEFE"/>
</svg>
